<svg width="1441" height="424" viewBox="0 0 1441 424" fill="none" xmlns="http://www.w3.org/2000/svg">
<path d="M1400.33 180.771C1394.65 193.741 1385.32 204.78 1373.48 212.542C1361.64 220.304 1347.8 224.456 1333.64 224.49V125.22C1333.64 125.381 1333.64 125.636 1333.64 126.012C1333.64 126.119 1333.64 126.253 1333.64 126.374V126.803C1334.3 132.96 1339.3 154.304 1376.57 168.778C1384.87 171.877 1392.81 175.871 1400.25 180.691" fill="#FF5900"/>
<path d="M1396.82 323.85C1396.82 330.806 1396.16 337.746 1394.84 344.576C1394.53 346.142 1393.68 347.549 1392.44 348.558C1391.2 349.566 1389.65 350.112 1388.06 350.103H1189.41C1188.5 350.103 1187.6 349.924 1186.76 349.576C1185.92 349.228 1185.16 348.718 1184.51 348.076C1183.87 347.433 1183.36 346.669 1183.01 345.83C1182.67 344.99 1182.49 344.09 1182.49 343.181V138.282C1182.45 113.233 1191.21 88.9647 1207.22 69.7057C1201.33 69.8525 1195.47 68.6888 1190.08 66.2984C1185.99 64.2149 1182.7 60.8494 1180.7 56.7166C1178.7 52.5838 1178.12 47.9112 1179.03 43.4127C1179.1 42.7978 1179.34 42.2121 1179.7 41.7097C1180.06 41.2073 1180.54 40.8042 1181.1 40.5372C1181.66 40.2702 1182.28 40.1478 1182.9 40.1814C1183.52 40.2151 1184.12 40.4035 1184.65 40.7296C1188.65 43.2479 1192.92 45.3176 1197.38 46.9007C1193.82 43.8859 1191.02 40.0805 1189.21 35.7895C1187.39 31.4986 1186.6 26.8412 1186.9 22.1904C1186.96 21.5219 1187.2 20.8826 1187.6 20.3408C1188 19.7991 1188.53 19.3756 1189.15 19.1151C1189.77 18.8547 1190.45 18.7674 1191.11 18.8625C1191.78 18.9577 1192.4 19.2315 1192.92 19.6551C1197.22 23.1438 1201.7 26.3992 1206.34 29.4076C1203.42 25.6806 1201.39 21.3385 1200.41 16.7108C1199.42 12.083 1199.5 7.29129 1200.64 2.69864C1200.83 2.00766 1201.22 1.38797 1201.76 0.915346C1202.3 0.442718 1202.97 0.137722 1203.68 0.0367982C1204.39 -0.0641259 1205.12 0.0435892 1205.77 0.347115C1206.42 0.65064 1206.97 1.13691 1207.34 1.7464C1225.56 30.1725 1262.94 30.9636 1284.83 30.9636C1286.52 30.8966 1288.24 30.8429 1289.94 30.8429H1333.87V46.9408H1318.86C1307.06 46.7379 1295.34 48.8755 1284.37 53.2303C1273.4 57.5851 1263.4 64.0708 1254.96 72.3123C1246.51 80.5538 1239.78 90.3881 1235.15 101.246C1230.53 112.104 1228.1 123.771 1228.01 135.573C1227.92 147.375 1230.18 159.077 1234.64 170.003C1239.1 180.929 1245.68 190.863 1254 199.231C1262.33 207.598 1272.22 214.233 1283.13 218.753C1294.03 223.272 1305.72 225.585 1317.52 225.559H1333.83C1352.64 234.204 1368.58 248.06 1379.75 265.486C1390.93 282.912 1396.87 303.176 1396.88 323.877" fill="#001A9C"/>
<path d="M1434.2 203.522C1434.03 204.185 1433.69 204.788 1433.2 205.266C1432.71 205.744 1432.1 206.078 1431.44 206.232C1430.77 206.386 1430.08 206.353 1429.43 206.138C1428.78 205.923 1428.2 205.533 1427.76 205.012C1414.16 188.721 1396.55 176.241 1376.68 168.792C1339.44 154.317 1334.45 132.974 1333.75 126.817C1333.67 125.998 1333.66 125.475 1333.66 125.22V29.8271C1378.02 29.8271 1465.86 75.8132 1434.16 203.522" fill="#FF8B00"/>
<path d="M1333.66 45.8711V224.49H1317.35C1293.66 224.49 1270.94 215.081 1254.19 198.332C1237.45 181.583 1228.04 158.867 1228.04 135.18C1228.04 111.494 1237.45 88.7781 1254.19 72.0294C1270.94 55.2806 1293.66 45.8711 1317.35 45.8711H1333.66Z" fill="white"/>
<path d="M1312.54 102.697C1312.54 106.695 1311.36 110.604 1309.13 113.929C1306.91 117.253 1303.76 119.844 1300.06 121.374C1296.37 122.904 1292.3 123.304 1288.38 122.524C1284.46 121.744 1280.86 119.819 1278.03 116.992C1275.2 114.164 1273.28 110.562 1272.5 106.641C1271.72 102.719 1272.12 98.654 1273.65 94.9599C1275.18 91.2659 1277.77 88.1093 1281.09 85.8879C1284.42 83.6665 1288.33 82.481 1292.33 82.481C1292.9 82.481 1293.47 82.5026 1294.03 82.5473C1294.37 82.58 1294.69 82.7091 1294.96 82.9182C1295.23 83.1273 1295.43 83.4083 1295.55 83.7288C1295.66 84.0493 1295.69 84.3961 1295.61 84.7285C1295.54 85.0609 1295.37 85.3651 1295.13 85.6062C1293.24 87.5008 1292.17 90.0699 1292.17 92.7492C1292.17 95.4285 1293.24 97.9985 1295.13 99.8931C1297.02 101.788 1299.59 102.852 1302.27 102.852C1304.95 102.852 1307.52 101.788 1309.42 99.8931C1309.66 99.6526 1309.96 99.4857 1310.3 99.4116C1310.63 99.3375 1310.97 99.3594 1311.29 99.4747C1311.61 99.5899 1311.9 99.7937 1312.11 100.063C1312.31 100.331 1312.44 100.654 1312.48 100.993C1312.48 101.556 1312.54 102.12 1312.54 102.697Z" fill="black"/>
<path d="M182.061 321.458C182.061 349.04 172.608 371.172 153.59 387.854C136.685 402.646 115.554 410.098 90.3078 410.098C59.612 410.098 35.923 400.199 19.1293 380.292C6.33936 364.832 0 346.704 0 325.795C0 309.891 3.55894 295.767 10.6768 283.533L55.497 273.524C47.6007 286.87 43.5969 302.106 43.5969 319.234C43.5969 333.803 47.7119 345.37 55.9419 353.711C64.172 362.052 75.6272 366.278 90.3078 366.278C104.544 366.278 115.776 362.274 124.006 354.267C132.236 346.259 136.351 335.36 136.351 321.569V172.317L182.061 148.183V321.458Z" fill="black"/>
<path d="M438.421 383.517C434.194 379.291 428.745 377.289 421.849 377.289C414.731 377.289 409.059 379.402 404.722 383.517C400.496 387.743 398.271 393.304 398.271 400.422C398.271 407.54 400.385 413.212 404.722 417.438C409.059 421.664 414.731 423.889 421.849 423.889C428.745 423.889 434.306 421.775 438.421 417.438C442.647 413.212 444.649 407.428 444.649 400.422C444.649 393.304 442.536 387.632 438.421 383.517Z" fill="black"/>
<path d="M605.357 383.517C601.131 379.291 595.681 377.289 588.786 377.289C581.668 377.289 575.996 379.402 571.659 383.74C567.321 387.966 565.208 393.638 565.208 400.533C565.208 407.429 567.321 413.101 571.659 417.438C575.885 421.887 581.668 424 588.786 424C595.681 424 601.242 421.887 605.357 417.55C609.472 413.212 611.585 407.54 611.585 400.533C611.585 393.304 609.584 387.632 605.357 383.517ZM553.197 383.629C548.859 379.291 543.298 377.178 536.403 377.178C529.285 377.178 523.613 379.291 519.276 383.629C514.938 387.855 512.825 393.527 512.825 400.422C512.825 407.318 514.938 412.99 519.276 417.327C523.502 421.776 529.285 423.889 536.403 423.889C543.298 423.889 548.859 421.776 553.197 417.438C557.423 413.212 559.647 407.429 559.647 400.422C559.647 393.527 557.534 387.966 553.197 383.629Z" fill="black"/>
<path d="M761.394 140.62C757.168 136.394 751.718 134.392 744.823 134.392C737.705 134.392 732.033 136.505 727.696 140.62C723.469 144.846 721.245 150.407 721.245 157.525C721.245 164.643 723.358 170.315 727.696 174.652C731.922 178.879 737.705 181.103 744.823 181.103C751.718 181.103 757.279 178.99 761.394 174.652C765.62 170.315 767.622 164.643 767.622 157.525C767.734 150.519 765.62 144.846 761.394 140.62Z" fill="black"/>
<path d="M765.843 209.241V290.095C765.843 309.558 759.726 324.794 747.714 335.805C737.037 345.37 723.358 350.263 706.675 350.263H616.924C602.354 350.263 590.232 346.704 580.556 339.586C570.546 346.704 558.312 350.263 543.854 350.263H454.214C439.533 350.263 427.522 346.704 417.846 339.586C407.837 346.704 395.603 350.263 381.145 350.263H291.504C272.264 350.263 257.249 344.146 246.35 331.801C236.897 320.902 232.226 307 232.226 290.095V172.317L277.602 148.183V288.204C277.602 294.877 278.937 299.548 281.717 302.329C284.386 304.998 289.168 306.444 295.841 306.444H376.696C383.369 306.444 388.04 305.109 390.82 302.329C393.49 299.66 394.935 294.877 394.935 288.204V233.374L440.312 209.241V288.204C440.312 294.877 441.646 299.548 444.204 302.329C446.762 305.109 451.545 306.444 458.44 306.444H539.294C545.967 306.444 550.639 305.109 553.419 302.329C556.199 299.548 557.534 294.877 557.534 288.204V233.374L603.022 209.241V288.204C603.022 294.877 604.356 299.548 606.914 302.329C609.583 304.998 614.254 306.444 621.15 306.444H702.004C708.677 306.444 713.348 305.109 716.129 302.329C718.909 299.548 720.244 294.877 720.244 288.204V233.374L765.843 209.241Z" fill="black"/>
<path d="M1080.25 383.517C1075.91 379.291 1070.35 377.289 1063.46 377.289C1056.56 377.289 1051 379.402 1046.66 383.517C1042.44 387.743 1040.21 393.193 1040.21 400.088C1040.21 407.206 1042.33 412.878 1046.66 417.327C1051 421.775 1056.56 423.889 1063.46 423.889C1070.58 423.889 1076.25 421.775 1080.36 417.438C1084.59 413.212 1086.59 407.317 1086.59 400.088C1086.7 393.193 1084.48 387.632 1080.25 383.517ZM1028.09 383.517C1023.87 379.291 1018.42 377.289 1011.52 377.289C1004.4 377.289 998.73 379.402 994.393 383.517C990.167 387.743 987.942 393.193 987.942 400.088C987.942 407.206 990.056 412.878 994.393 417.327C998.73 421.775 1004.4 423.889 1011.52 423.889C1018.42 423.889 1023.98 421.775 1028.09 417.438C1032.32 413.212 1034.32 407.317 1034.32 400.088C1034.32 393.193 1032.21 387.632 1028.09 383.517Z" fill="black"/>
<path d="M1044.11 233.375V288.205C1044.11 294.878 1042.77 299.549 1039.99 302.329C1037.21 305.11 1032.54 306.444 1025.87 306.444H938.785V262.847C938.785 245.942 934.114 232.263 924.66 221.808C913.539 209.686 898.079 203.68 877.949 203.68C858.931 203.68 843.695 209.686 832.239 221.808C819.338 235.154 812.776 253.616 812.776 276.972C812.776 293.877 817.67 308.669 827.457 321.125C839.357 335.917 855.817 344.703 876.615 347.483C883.065 348.373 888.626 348.818 893.186 349.04C892.296 354.267 888.96 358.827 883.176 362.831C877.282 366.835 870.831 368.837 863.714 368.837C852.481 368.837 840.469 365.278 828.013 358.16V397.864C841.804 405.538 855.483 409.431 869.052 409.431C885.957 409.431 900.749 404.76 913.205 395.306C928.442 384.073 936.783 368.948 938.229 350.152H1029.98C1046.89 350.152 1060.57 345.37 1071.02 335.694C1083.14 324.572 1089.15 309.336 1089.15 289.984V209.13L1044.11 233.375ZM893.297 305.777C869.497 305.777 857.597 295.656 857.597 275.415C857.597 255.952 864.381 246.276 877.949 246.276C888.181 246.276 893.297 251.948 893.297 263.181V305.777Z" fill="black"/>
</svg>
