<svg width="1441" height="424" viewBox="0 0 1441 424" fill="none" xmlns="http://www.w3.org/2000/svg">
<path d="M182.061 321.458C182.061 349.04 172.608 371.172 153.59 387.854C136.685 402.646 115.554 410.098 90.3078 410.098C59.612 410.098 35.923 400.199 19.1293 380.292C6.33936 364.832 0 346.704 0 325.795C0 309.891 3.55894 295.767 10.6768 283.533L55.497 273.524C47.6007 286.87 43.5969 302.106 43.5969 319.234C43.5969 333.803 47.7119 345.37 55.9419 353.711C64.172 362.052 75.6272 366.278 90.3078 366.278C104.544 366.278 115.776 362.274 124.006 354.267C132.236 346.259 136.351 335.36 136.351 321.569V172.317L182.061 148.183V321.458Z" fill="white"/>
<path d="M438.421 383.517C434.194 379.291 428.745 377.289 421.849 377.289C414.731 377.289 409.059 379.402 404.722 383.517C400.496 387.743 398.271 393.304 398.271 400.422C398.271 407.54 400.385 413.212 404.722 417.438C409.059 421.664 414.731 423.889 421.849 423.889C428.745 423.889 434.306 421.776 438.421 417.438C442.647 413.212 444.649 407.429 444.649 400.422C444.649 393.304 442.536 387.632 438.421 383.517Z" fill="white"/>
<path d="M605.357 383.517C601.131 379.291 595.681 377.289 588.786 377.289C581.668 377.289 575.996 379.402 571.659 383.739C567.321 387.966 565.208 393.638 565.208 400.533C565.208 407.429 567.321 413.101 571.659 417.438C575.885 421.887 581.668 424 588.786 424C595.681 424 601.242 421.887 605.357 417.549C609.472 413.212 611.585 407.54 611.585 400.533C611.585 393.304 609.584 387.632 605.357 383.517ZM553.197 383.628C548.859 379.291 543.298 377.178 536.403 377.178C529.285 377.178 523.613 379.291 519.276 383.628C514.938 387.855 512.825 393.527 512.825 400.422C512.825 407.317 514.938 412.989 519.276 417.327C523.502 421.776 529.285 423.889 536.403 423.889C543.298 423.889 548.859 421.776 553.197 417.438C557.423 413.212 559.647 407.429 559.647 400.422C559.647 393.527 557.534 387.966 553.197 383.628Z" fill="white"/>
<path d="M761.394 140.62C757.168 136.394 751.718 134.392 744.823 134.392C737.705 134.392 732.033 136.505 727.696 140.62C723.469 144.846 721.245 150.407 721.245 157.525C721.245 164.643 723.358 170.315 727.696 174.652C731.922 178.879 737.705 181.103 744.823 181.103C751.718 181.103 757.279 178.99 761.394 174.652C765.62 170.315 767.622 164.643 767.622 157.525C767.734 150.519 765.62 144.846 761.394 140.62Z" fill="white"/>
<path d="M765.843 209.241V290.095C765.843 309.558 759.726 324.794 747.714 335.805C737.037 345.37 723.358 350.263 706.675 350.263H616.924C602.354 350.263 590.232 346.704 580.556 339.586C570.546 346.704 558.312 350.263 543.854 350.263H454.214C439.533 350.263 427.522 346.704 417.846 339.586C407.837 346.704 395.603 350.263 381.145 350.263H291.504C272.264 350.263 257.249 344.146 246.35 331.801C236.897 320.902 232.226 307 232.226 290.095V172.317L277.602 148.183V288.204C277.602 294.877 278.937 299.548 281.717 302.329C284.386 304.998 289.168 306.444 295.841 306.444H376.696C383.369 306.444 388.04 305.109 390.82 302.329C393.49 299.66 394.935 294.877 394.935 288.204V233.374L440.312 209.241V288.204C440.312 294.877 441.646 299.548 444.204 302.329C446.762 305.109 451.545 306.444 458.44 306.444H539.294C545.967 306.444 550.639 305.109 553.419 302.329C556.199 299.548 557.534 294.877 557.534 288.204V233.374L603.022 209.241V288.204C603.022 294.877 604.356 299.548 606.914 302.329C609.583 304.998 614.254 306.444 621.15 306.444H702.004C708.677 306.444 713.348 305.109 716.129 302.329C718.909 299.548 720.244 294.877 720.244 288.204V233.374L765.843 209.241Z" fill="white"/>
<path d="M1080.25 383.517C1075.91 379.291 1070.35 377.289 1063.46 377.289C1056.56 377.289 1051 379.402 1046.66 383.517C1042.44 387.743 1040.21 393.193 1040.21 400.088C1040.21 407.206 1042.33 412.878 1046.66 417.327C1051 421.776 1056.56 423.889 1063.46 423.889C1070.58 423.889 1076.25 421.776 1080.36 417.438C1084.59 413.212 1086.59 407.318 1086.59 400.088C1086.7 393.193 1084.48 387.632 1080.25 383.517ZM1028.09 383.517C1023.87 379.291 1018.42 377.289 1011.52 377.289C1004.4 377.289 998.73 379.402 994.393 383.517C990.167 387.743 987.942 393.193 987.942 400.088C987.942 407.206 990.056 412.878 994.393 417.327C998.73 421.776 1004.4 423.889 1011.52 423.889C1018.42 423.889 1023.98 421.776 1028.09 417.438C1032.32 413.212 1034.32 407.318 1034.32 400.088C1034.32 393.193 1032.21 387.632 1028.09 383.517Z" fill="white"/>
<path d="M1044.11 233.375V288.205C1044.11 294.878 1042.77 299.549 1039.99 302.329C1037.21 305.11 1032.54 306.444 1025.87 306.444H938.785V262.847C938.785 245.942 934.114 232.263 924.66 221.808C913.539 209.686 898.079 203.68 877.949 203.68C858.931 203.68 843.695 209.686 832.239 221.808C819.338 235.154 812.776 253.616 812.776 276.972C812.776 293.877 817.67 308.669 827.457 321.125C839.357 335.917 855.817 344.703 876.615 347.483C883.065 348.373 888.626 348.818 893.186 349.04C892.296 354.267 888.96 358.827 883.176 362.831C877.282 366.835 870.831 368.837 863.714 368.837C852.481 368.837 840.469 365.278 828.013 358.16V397.864C841.804 405.538 855.483 409.431 869.052 409.431C885.957 409.431 900.749 404.76 913.205 395.306C928.442 384.073 936.783 368.948 938.229 350.152H1029.98C1046.89 350.152 1060.57 345.37 1071.02 335.694C1083.14 324.572 1089.15 309.336 1089.15 289.984V209.13L1044.11 233.375ZM893.297 305.777C869.497 305.777 857.597 295.656 857.597 275.415C857.597 255.952 864.381 246.276 877.949 246.276C888.181 246.276 893.297 251.948 893.297 263.181V305.777Z" fill="white"/>
<path d="M1440.59 150.766C1439.62 101.976 1417.64 72.8094 1399.3 57.0466C1379.25 39.6752 1356.41 31.7402 1339.04 29.7028C1335.82 29.2739 1332.82 29.1667 1330.03 29.1667H1288.32C1286.71 29.1667 1285.1 29.1667 1283.6 29.2739H1283.5C1265.8 29.2739 1232.78 29.2739 1217.76 5.79044C1215.4 2.14461 1211.44 0 1207.15 0C1201.46 0 1196.53 3.64583 1195.03 9.22181C1194.39 11.6881 1193.85 14.5833 1193.74 17.9075C1187.42 18.2292 1182.27 23.0545 1181.73 29.3811C1181.52 31.8474 1181.52 35.1716 1182.27 39.0319C1178.09 40.6403 1174.98 44.5006 1174.34 49.2187C1172.51 63.0515 1178.2 74.3107 1189.67 80.2083C1191.06 80.8517 1192.46 81.4951 1194.07 82.0312C1183.34 99.4026 1177.55 119.669 1177.55 140.257V334.344C1177.55 343.03 1184.63 350 1193.21 350H1381.4C1388.9 350 1395.34 344.638 1396.73 337.347C1398.12 330.377 1398.77 323.192 1398.77 316.008C1398.77 294.24 1392.55 273.116 1380.65 255.101C1373.78 244.593 1365.31 235.478 1355.45 227.865C1373.78 221.538 1389.44 208.456 1398.88 190.656C1398.98 190.548 1399.09 190.334 1399.09 190.119C1403.7 193.98 1407.99 198.376 1411.96 202.987C1414.42 205.882 1417.96 207.491 1421.72 207.491C1427.61 207.491 1432.76 203.523 1434.15 197.733C1438.23 181.541 1440.37 165.885 1440.7 151.195V150.98L1440.59 150.766ZM1390.73 186.152C1381.5 203.416 1365.31 216.284 1345.8 220.895C1340.76 222.074 1335.61 222.718 1330.25 222.825C1335.07 225.077 1339.68 227.65 1344.08 230.653C1371.64 249.096 1389.65 280.193 1389.65 315.901C1389.65 322.656 1389.01 329.197 1387.72 335.524C1387.08 338.526 1384.4 340.778 1381.29 340.778H1193.1C1189.45 340.778 1186.56 337.883 1186.56 334.237V140.15C1186.56 115.487 1195.35 92.7543 1210.04 75.1685C1204.04 75.0613 1198.25 74.2034 1193.85 71.9516C1183.24 66.5901 1182.59 56.4032 1183.34 50.291C1183.66 47.7175 1186.45 46.4308 1188.7 47.7175C1191.81 49.6477 1196.32 52.114 1200.71 53.6152C1191.49 44.7151 1190.31 35.8149 1190.74 30.239C1190.96 27.451 1194.28 26.057 1196.42 27.8799C1199.75 30.5607 1204.57 34.2065 1209.08 37.1017C1201.79 26.3787 1202.11 17.4786 1203.72 11.7953C1204.57 8.90012 1208.43 8.36397 1210.04 10.9375C1227.31 37.8523 1262.69 38.6029 1283.5 38.6029C1285.1 38.4957 1286.71 38.4957 1288.32 38.4957H1320.81V53.7224H1314.49C1270.41 53.7224 1234.17 87.5 1230.2 130.499C1230.2 130.607 1230.2 130.714 1230.2 130.928C1230.09 131.572 1230.09 132.215 1230.09 132.858C1230.09 133.502 1229.99 134.038 1229.99 134.681C1229.99 135.003 1229.99 135.325 1229.99 135.754C1229.99 136.075 1229.99 136.29 1229.99 136.612C1229.99 137.148 1229.99 137.791 1229.99 138.327C1229.99 152.911 1233.74 166.636 1240.17 178.646C1240.82 179.825 1241.46 181.005 1242.21 182.184C1242.53 182.721 1242.96 183.364 1243.28 183.9C1244.03 185.08 1244.79 186.152 1245.54 187.224C1246.29 188.297 1247.14 189.476 1248 190.441C1252.18 195.803 1257.01 200.628 1262.37 204.81C1263.44 205.668 1264.52 206.419 1265.59 207.276C1266.66 208.027 1267.84 208.778 1269.02 209.528C1282.21 217.999 1297.86 222.825 1314.59 222.825H1330.03V213.71V141.651C1331.43 143.796 1332.93 145.833 1334.75 147.871C1340.01 155.913 1350.19 165.456 1369.71 173.07C1376.79 175.751 1383.54 179.075 1389.98 182.935C1390.94 183.686 1391.37 185.08 1390.73 186.152ZM1301.08 107.338C1303.87 107.338 1306.34 106.265 1308.27 104.442C1309.34 103.37 1311.27 104.013 1311.38 105.622C1311.38 106.158 1311.48 106.801 1311.48 107.338C1311.48 119.133 1301.72 128.569 1289.82 128.033C1279.31 127.497 1270.63 118.919 1270.09 108.303C1269.56 96.4001 1278.99 86.6422 1290.79 86.6422C1291.43 86.6422 1291.97 86.6422 1292.5 86.7494C1294 86.8566 1294.75 88.7868 1293.58 89.8591C1291.75 91.682 1290.68 94.2555 1290.68 97.0435C1290.79 102.619 1295.4 107.338 1301.08 107.338ZM1425.15 195.481C1424.4 198.376 1420.75 199.234 1418.82 196.982C1411.42 188.189 1402.74 180.469 1393.09 174.249C1379.79 165.671 1363.81 162.025 1351.48 151.838C1348.05 148.943 1344.72 145.833 1341.83 142.402C1340.01 140.257 1338.29 138.006 1336.79 135.539C1335.18 132.966 1333.79 130.285 1332.71 127.497C1329.71 119.776 1329.93 111.52 1329.93 103.477L1329.82 38.2812V38.3885L1329.93 38.2812C1332.71 38.2812 1335.82 38.4957 1338.93 38.9246C1375.18 43.6428 1429.87 75.7047 1431.37 150.98C1431.15 164.491 1429.22 179.289 1425.15 195.481Z" fill="white"/>
<path d="M1330.25 222.825H1329.93V222.717C1330.03 222.717 1330.14 222.825 1330.25 222.825Z" fill="white"/>
<path d="M1330.25 222.825H1329.93V222.717C1330.03 222.717 1330.14 222.825 1330.25 222.825Z" fill="white"/>
<path d="M1330.25 222.825H1329.93V222.717C1330.03 222.717 1330.14 222.825 1330.25 222.825Z" fill="white"/>
<path d="M1330.25 222.825H1329.93V222.717C1330.03 222.717 1330.14 222.825 1330.25 222.825Z" fill="white"/>
<path d="M1268.81 209.421C1267.63 208.67 1266.55 207.92 1265.37 207.169C1266.55 207.92 1267.73 208.67 1268.81 209.421Z" fill="white"/>
</svg>
